<?xml version="1.0" encoding="UTF-8"?>
<svg width="16px" height="16px" viewBox="0 0 16 16" version="1.1" xmlns="http://www.w3.org/2000/svg" xmlns:xlink="http://www.w3.org/1999/xlink">
    <title>切片</title>
    <g id="管理后台" stroke="none" stroke-width="1" fill="none" fill-rule="evenodd">
        <g id="Tacos-Could管理后台-应用管理" transform="translate(-572.000000, -408.000000)">
            <g id="应用卡片" transform="translate(288.000000, 224.000000)">
                <g id="操作" transform="translate(0.000000, 172.000000)">
                    <g id="编组-3" transform="translate(264.000000, 0.000000)">
                        <g id="icon图标/删除" transform="translate(20.000000, 12.000000)">
                            <rect id="矩形" fill="#5E66F2" fill-rule="nonzero" opacity="0" transform="translate(8.000000, 8.000000) scale(-1, 1) translate(-8.000000, -8.000000) " x="0" y="0" width="16" height="16"></rect>
                            <path d="M10,1 C10.5522847,1 11,1.44771525 11,2 L11,3 L14.5,3 C14.7761424,3 15,3.22385763 15,3.5 C15,3.75103852 14.8149937,3.95886651 14.5738863,3.99457872 L14.5,4 L12.5,4 L12.5,14 C12.5,14.5522847 12.0522847,15 11.5,15 L4.5,15 C3.94771525,15 3.5,14.5522847 3.5,14 L3.5,4 L1.5,4 C1.22385763,4 1,3.77614237 1,3.5 C1,3.24896148 1.1850063,3.04113349 1.42611366,3.00542128 L1.5,3 L5,3 L5,2 C5,1.44771525 5.44771525,1 6,1 L10,1 Z M11.5,4 L4.5,4 L4.5,14 L11.5,14 L11.5,4 Z M9.59090909,6.52272727 C9.84194761,6.52272727 10.0497756,6.70773357 10.0854878,6.94884094 L10.0909091,7.02272727 L10.0909091,11.0227273 C10.0909091,11.2988696 9.86705147,11.5227273 9.59090909,11.5227273 C9.33987057,11.5227273 9.13204258,11.337721 9.09633037,11.0966136 L9.09090909,11.0227273 L9.09090909,7.02272727 C9.09090909,6.7465849 9.31476672,6.52272727 9.59090909,6.52272727 Z M10,2 L6,2 L6,3 L10,3 L10,2 Z" id="形状结合" fill="#5E66F2" transform="translate(8.000000, 8.000000) scale(-1, 1) translate(-8.000000, -8.000000) "></path>
                        </g>
                    </g>
                </g>
            </g>
        </g>
    </g>
</svg>