<?xml version="1.0" encoding="UTF-8"?>
<svg width="16px" height="16px" viewBox="0 0 16 16" version="1.1" xmlns="http://www.w3.org/2000/svg" xmlns:xlink="http://www.w3.org/1999/xlink">
    <title>切片</title>
    <g id="管理后台" stroke="none" stroke-width="1" fill="none" fill-rule="evenodd">
        <g id="Tacos-Could管理后台-应用管理" transform="translate(-396.000000, -408.000000)">
            <g id="应用卡片" transform="translate(288.000000, 224.000000)">
                <g id="操作" transform="translate(0.000000, 172.000000)">
                    <g id="编组-4备份" transform="translate(88.000000, 0.000000)">
                        <g id="icon图标/更新" transform="translate(20.000000, 12.000000)">
                            <rect id="矩形" fill="#FFFFFF" fill-rule="nonzero" opacity="0" transform="translate(8.000000, 8.000000) scale(-1, 1) translate(-8.000000, -8.000000) " x="0" y="0" width="16" height="16"></rect>
                            <path d="M8,3 C10.7614237,3 15,5.73857625 15,8.5 C15,11.2614237 10.7614237,14 8,14 C5.23857625,14 1,11.2614237 1,8.5 C1,5.73857625 5.23857625,3 8,3 Z M8,4 C5.48424358,4 2,6.55416752 2,8.5 C2,10.4458325 5.48424358,13 8,13 C10.5157564,13 14,10.4458325 14,8.5 C14,6.55416752 10.5157564,4 8,4 Z M8,6 C9.38071187,6 10.5,7.11928813 10.5,8.5 C10.5,9.88071187 9.38071187,11 8,11 C6.61928813,11 5.5,9.88071187 5.5,8.5 C5.5,7.11928813 6.61928813,6 8,6 Z M8,7 C7.17157288,7 6.5,7.67157288 6.5,8.5 C6.5,9.32842712 7.17157288,10 8,10 C8.82842712,10 9.5,9.32842712 9.5,8.5 C9.5,7.67157288 8.82842712,7 8,7 Z" id="形状结合" fill="#86909C"></path>
                        </g>
                    </g>
                </g>
            </g>
        </g>
    </g>
</svg>