<?xml version="1.0" encoding="UTF-8"?>
<svg width="16px" height="16px" viewBox="0 0 16 16" version="1.1" xmlns="http://www.w3.org/2000/svg" xmlns:xlink="http://www.w3.org/1999/xlink">
    <title>切片</title>
    <defs>
        <rect id="path-1" x="0" y="0" width="16" height="16"></rect>
    </defs>
    <g id="管理后台" stroke="none" stroke-width="1" fill="none" fill-rule="evenodd">
        <g id="Tacos-Could管理后台-应用管理" transform="translate(-860.000000, -408.000000)">
            <g id="应用卡片备份" transform="translate(664.000000, 224.000000)">
                <g id="操作" transform="translate(0.000000, 172.000000)">
                    <g id="编组-4备份-2" transform="translate(176.000000, 0.000000)">
                        <g id="icon图标/更新" transform="translate(20.000000, 12.000000)">
                            <mask id="mask-2" fill="white">
                                <use xlink:href="#path-1"></use>
                            </mask>
                            <use id="矩形" fill="#FFFFFF" opacity="0" xlink:href="#path-1"></use>
                            <path d="M14.5,13.4913948 C14.7761424,13.4913948 15,13.7152525 15,13.9913948 L15,14 C15,14.2761424 14.7761424,14.5 14.5,14.5 L9.44755106,14.5 C9.17140868,14.5 8.94755106,14.2761424 8.94755106,14 L8.94755106,13.9913948 C8.94755106,13.7152525 9.17140868,13.4913948 9.44755106,13.4913948 L14.5,13.4913948 Z M10.3055518,1.83926407 L10.4204701,1.94312042 L13.2736219,4.79588662 C13.8275973,5.34978715 13.8622207,6.22632798 13.3774923,6.82055854 L13.2736219,6.93546127 L6.43619595,13.7719632 C6.18790281,14.0202228 5.86220312,14.1732921 5.51581658,14.2076804 L5.36626403,14.2150836 L2.00874149,14.2150836 C1.48876978,14.2150836 1.06068601,13.8217178 1.00591916,13.3163771 L1,13.2064784 L1,9.84940964 C1,9.49831757 1.12205343,9.15980784 1.34266622,8.89059247 L1.44318031,8.77962231 L8.28060625,1.94312042 C8.83458164,1.3892199 9.71124096,1.35460111 10.3055518,1.83926407 Z M6.978,4.671 L2.15646826,9.49281386 C2.08079797,9.56847393 2.03165501,9.66569959 2.01502464,9.77004313 L2.00874149,9.84940964 L2.00874149,13.2064784 L5.36626403,13.2064784 C5.47327798,13.2064784 5.57678552,13.1724741 5.66233696,13.11045 L5.722908,13.0587716 L10.544,8.237 L6.978,4.671 Z M14.5,11.4741845 C14.7761424,11.4741845 15,11.6980421 15,11.9741845 L15,11.9827897 C15,12.258932 14.7761424,12.4827897 14.5,12.4827897 L11.9694048,12.4827897 C11.6932624,12.4827897 11.4694048,12.258932 11.4694048,11.9827897 L11.4694048,11.9741845 C11.4694048,11.6980421 11.6932624,11.4741845 11.9694048,11.4741845 L14.5,11.4741845 Z M9.06374742,2.59795866 L8.9938942,2.65631197 L7.691,3.958 L11.258,7.523 L12.5603339,6.22226972 C12.7354175,6.0472098 12.7548713,5.77546696 12.6186951,5.57892195 L12.5603339,5.50907817 L9.70718215,2.65631197 C9.53209857,2.48125205 9.260319,2.46180095 9.06374742,2.59795866 Z" id="形状结合" fill="#86909C" mask="url(#mask-2)"></path>
                        </g>
                    </g>
                </g>
            </g>
        </g>
    </g>
</svg>