<?xml version="1.0" encoding="UTF-8"?>
<svg width="16px" height="16px" viewBox="0 0 16 16" version="1.1" xmlns="http://www.w3.org/2000/svg" xmlns:xlink="http://www.w3.org/1999/xlink">
    <title>切片</title>
    <g id="管理后台" stroke="none" stroke-width="1" fill="none" fill-rule="evenodd">
        <g id="Tacos-Could管理后台-应用管理-详情-编辑版本" transform="translate(-1368.000000, -274.000000)">
            <g id="抽屉" transform="translate(920.000000, 0.000000)">
                <g id="编组备份-6" transform="translate(24.000000, 236.000000)">
                    <g id="编组-3" transform="translate(0.000000, 30.000000)">
                        <g id="图标/功能图标/关闭-circle" transform="translate(424.000000, 8.000000)">
                            <rect id="矩形" fill="#D8D8D8" opacity="0" x="0" y="0" width="16" height="16"></rect>
                            <path d="M14,6.7143775 L14,3.7145918 L13.0201366,4.69295048 C11.9088982,3.01189351 10.0265286,2.00027501 8.0092278,2 C4.69065417,2 2,4.68609382 2,8 C2,11.3139061 4.69065417,14 8.0092278,14 C10.4556054,14.0004866 12.6581203,12.520275 13.5785257,10.2571244 C13.647758,10.0869505 13.6208049,9.89282516 13.5078195,9.7478734 C13.3948341,9.60292164 13.2129815,9.52916513 13.0307638,9.55438722 C12.8485461,9.57960932 12.6936466,9.69997819 12.6244143,9.87015205 C11.8614226,11.7453293 10.0363614,12.9717485 8.0092278,12.9715019 C5.25934404,12.9715019 3.03007976,10.7456609 3.03007976,8 C3.03007976,5.25433894 5.25934404,3.02849795 8.0092278,3.02849795 C9.78568618,3.02849795 11.3883186,3.96700234 12.2746164,5.43689733 L10.9956007,6.7143775 L14,6.7143775 Z" id="路径" fill="#5E66F2"></path>
                        </g>
                    </g>
                </g>
            </g>
        </g>
    </g>
</svg>