<?xml version="1.0" encoding="UTF-8"?>
<svg width="16px" height="16px" viewBox="0 0 16 16" version="1.1" xmlns="http://www.w3.org/2000/svg" xmlns:xlink="http://www.w3.org/1999/xlink">
    <title>切片</title>
    <g id="管理后台" stroke="none" stroke-width="1" fill="none" fill-rule="evenodd">
        <g id="Tacos-Could管理后台-应用管理" transform="translate(-308.000000, -408.000000)">
            <g id="应用卡片" transform="translate(288.000000, 224.000000)">
                <g id="操作" transform="translate(0.000000, 172.000000)">
                    <g id="icon图标/更新" transform="translate(20.000000, 12.000000)">
                        <rect id="矩形" fill="#5E66F2" opacity="0" transform="translate(8.000000, 8.000000) scale(1, -1) translate(-8.000000, -8.000000) " x="0" y="0" width="16" height="16"></rect>
                        <path d="M8,1 C11.8659932,1 15,4.13400675 15,8 C15,11.8659932 11.8659932,15 8,15 C4.13400675,15 1,11.8659932 1,8 C1,4.13400675 4.13400675,1 8,1 Z M8,2 C4.6862915,2 2,4.6862915 2,8 C2,11.3137085 4.6862915,14 8,14 C11.3137085,14 14,11.3137085 14,8 C14,4.6862915 11.3137085,2 8,2 Z M8.53156074,3.91717866 C8.59561947,3.52977813 9.08584375,3.35548179 9.37935761,3.65103254 L9.37935761,3.65103254 L11.3608623,5.64628825 L11.418478,5.71573578 C11.5527994,5.91106955 11.5325827,6.18042565 11.3584173,6.35339081 L11.3584173,6.35339081 L11.2889697,6.41100647 C11.093636,6.54532789 10.8242799,6.52511124 10.6513147,6.35094576 L10.6513147,6.35094576 L9.52546816,5.21746816 L9.52458381,12.0139058 L9.51652814,12.1037815 C9.47419218,12.3370307 9.2700437,12.5139058 9.02458381,12.5139058 C8.74844143,12.5139058 8.52458381,12.2900482 8.52458381,12.0139058 L8.52458381,12.0139058 L8.52458381,4.0033613 Z M7.49911161,3.91717866 L7.50608854,4.0033613 L7.50608854,12.0139058 C7.50608854,12.2900482 7.28223091,12.5139058 7.00608854,12.5139058 C6.76062865,12.5139058 6.55648017,12.3370307 6.51414421,12.1037815 L6.50608854,12.0139058 L6.50520419,5.21746816 L5.37935763,6.35094576 C5.20639248,6.52511124 4.93703637,6.54532789 4.7417026,6.41100647 L4.67225507,6.35339081 C4.4980896,6.18042565 4.47787294,5.91106955 4.61219437,5.71573578 L4.66981003,5.64628825 L6.65131474,3.65103254 C6.9448286,3.35548179 7.43505288,3.52977813 7.49911161,3.91717866 Z" id="形状结合" fill="#5E66F2"></path>
                    </g>
                </g>
            </g>
        </g>
    </g>
</svg>