<?xml version="1.0" encoding="UTF-8"?>
<svg width="16px" height="16px" viewBox="0 0 16 16" version="1.1" xmlns="http://www.w3.org/2000/svg" xmlns:xlink="http://www.w3.org/1999/xlink">
    <title>切片</title>
    <g id="管理后台" stroke="none" stroke-width="1" fill="none" fill-rule="evenodd">
        <g id="Tacos-Could管理后台-应用管理" transform="translate(-684.000000, -408.000000)">
            <g id="应用卡片备份" transform="translate(664.000000, 224.000000)">
                <g id="操作" transform="translate(0.000000, 172.000000)">
                    <g id="icon图标/更新" transform="translate(20.000000, 12.000000)">
                        <rect id="矩形" fill="#5E66F2" opacity="0" transform="translate(8.000000, 8.000000) scale(1, -1) translate(-8.000000, -8.000000) " x="0" y="0" width="16" height="16"></rect>
                        <path d="M8,1 C11.8659932,1 15,4.13400675 15,8 C15,11.8659932 11.8659932,15 8,15 C4.13400675,15 1,11.8659932 1,8 C1,4.13400675 4.13400675,1 8,1 Z M8,2 C4.6862915,2 2,4.6862915 2,8 C2,11.3137085 4.6862915,14 8,14 C11.3137085,14 14,11.3137085 14,8 C14,4.6862915 11.3137085,2 8,2 Z M7.00608854,3.50235815 C7.28223091,3.50235815 7.50608854,3.72621578 7.50608854,4.00235815 L7.50608854,4.00235815 L7.50608854,12.0129027 L7.49911161,12.0990853 C7.43505288,12.4864858 6.9448286,12.6607822 6.65131474,12.3652314 L6.65131474,12.3652314 L4.66981003,10.3699757 L4.61219437,10.3005282 C4.47787294,10.1051944 4.4980896,9.83583831 4.67225507,9.66287316 L4.67225507,9.66287316 L4.7417026,9.6052575 C4.93703637,9.47093608 5.20639248,9.49115273 5.37935763,9.66531821 L5.37935763,9.66531821 L6.50520419,10.7987958 L6.50608854,4.00235815 L6.51414421,3.91248252 C6.55648017,3.67923331 6.76062865,3.50235815 7.00608854,3.50235815 Z M9.02458381,3.50235815 C9.2700437,3.50235815 9.47419218,3.67923331 9.51652814,3.91248252 L9.52458381,4.00235815 L9.52546816,10.7987958 L10.6513147,9.66531821 C10.8242799,9.49115273 11.093636,9.47093608 11.2889697,9.6052575 L11.3584173,9.66287316 C11.5325827,9.83583831 11.5527994,10.1051944 11.418478,10.3005282 L11.3608623,10.3699757 L9.37935761,12.3652314 C9.08584375,12.6607822 8.59561947,12.4864858 8.53156074,12.0990853 L8.52458381,12.0129027 L8.52458381,4.00235815 C8.52458381,3.72621578 8.74844143,3.50235815 9.02458381,3.50235815 Z" id="形状结合" fill="#5E66F2"></path>
                    </g>
                </g>
            </g>
        </g>
    </g>
</svg>