<?xml version="1.0" encoding="UTF-8"?>
<svg width="16px" height="16px" viewBox="0 0 16 16" version="1.1" xmlns="http://www.w3.org/2000/svg" xmlns:xlink="http://www.w3.org/1999/xlink">
    <title>切片</title>
    <g id="管理后台" stroke="none" stroke-width="1" fill="none" fill-rule="evenodd">
        <g id="Tacos-Could管理后台-应用管理-详情-新增版本" transform="translate(-960.000000, -274.000000)">
            <g id="抽屉" transform="translate(920.000000, 0.000000)">
                <g id="编组备份-6" transform="translate(24.000000, 236.000000)">
                    <g id="编组-3" transform="translate(0.000000, 30.000000)">
                        <g id="图标/3.操作/23.上传" transform="translate(16.000000, 8.000000)">
                            <rect id="矩形" fill="#FFFFFF" opacity="0" x="0" y="0" width="16" height="16"></rect>
                            <path d="M1.5,9.5 C1.74545989,9.5 1.94960837,9.67687516 1.99194433,9.91012437 L2,10 L2,12.9951828 C2,13.2434844 2.17730129,13.4492288 2.41026641,13.4918844 L2.5,13.5 L13.5,13.5 C13.7449805,13.5 13.9495018,13.3218446 13.9919266,13.0860656 L14,12.9951828 L14,10.0357421 C14,9.75959972 14.2238576,9.53574209 14.5,9.53574209 C14.7454599,9.53574209 14.9496084,9.71261725 14.9919443,9.94586646 L15,10.0357421 L15,12.9951828 C15,13.7795922 14.4014546,14.4245992 13.6366108,14.4938456 L13.5,14.5 L2.5,14.5 C1.71708725,14.5 1.07504673,13.8985713 1.00612529,13.1320721 L1,12.9951828 L1,10 C1,9.72385763 1.22385763,9.5 1.5,9.5 Z M8,1.5 L8.0117727,1.49999778 C8.24797203,1.49985955 8.48379472,1.62006541 8.77698794,1.8604794 L8.89789786,1.96343962 L11.3304162,4.10523245 C11.5376703,4.28771629 11.5577506,4.60366132 11.3752667,4.8109154 C11.2130589,4.99514126 10.9454002,5.03147667 10.7423619,4.90911257 L10.6695838,4.85576588 L8.5,2.94499766 L8.5,12 C8.5,12.2761424 8.27614237,12.5 8,12.5 C7.75454011,12.5 7.55039163,12.3231248 7.50805567,12.0898756 L7.5,12 L7.5,2.96399766 L5.33041624,4.87526672 C5.12316215,5.05775057 4.80721713,5.03767032 4.62473328,4.83041624 C4.46252542,4.64619038 4.46036819,4.37608527 4.60745254,4.19017207 L4.66958376,4.12473328 L7.11615615,1.97056612 C7.42617568,1.69759898 7.6708679,1.54343982 7.90676855,1.50795556 C7.91028948,1.5080064 7.91458417,1.50724768 7.9188974,1.50654416 C7.94320224,1.50302495 7.96651832,1.5011062 7.98981334,1.50035727 C7.99250948,1.50004128 7.99624992,1.5 8,1.5 Z" id="形状结合" fill="#4E5969"></path>
                        </g>
                    </g>
                </g>
            </g>
        </g>
    </g>
</svg>