<?xml version="1.0" encoding="UTF-8"?>
<svg width="24px" height="24px" viewBox="0 0 24 24" version="1.1" xmlns="http://www.w3.org/2000/svg" xmlns:xlink="http://www.w3.org/1999/xlink">
    <title>切片</title>
    <g id="管理后台" stroke="none" stroke-width="1" fill="none" fill-rule="evenodd">
        <g id="Tacos-Could管理后台-硬件管理-硬件详情/关联产品-数据定义" transform="translate(-1130.000000, -146.000000)">
            <g id="icon/映射" transform="translate(1130.000000, 146.000000)">
                <rect id="矩形" opacity="0" x="0" y="0" width="24" height="24"></rect>
                <path d="M8.32360293,10.1721181 C8.5902696,10.4387847 8.5902696,10.8387847 8.32360293,11.1054514 L7.32360293,12.1054514 C5.9902696,13.4721181 5.9902696,15.6721181 7.35693625,17.0054514 C8.72360291,18.3387847 10.9236029,18.3387847 12.2569363,16.9721181 L13.2569363,15.9721181 C13.5236029,15.7054514 13.9236029,15.7054514 14.1902696,15.9721181 C14.4569363,16.2387847 14.4569363,16.6387847 14.1902696,16.9054514 L13.1902696,17.9054514 C12.3236029,18.8721181 11.0902696,19.3387847 9.82360293,19.3387847 C8.5902696,19.3387847 7.3902696,18.8721181 6.45693625,17.9721181 C4.55693625,16.1054514 4.55693625,13.0721181 6.39026958,11.1721181 L7.39026958,10.1721181 C7.65693625,9.90545139 8.05693625,9.90545139 8.32360293,10.1721181 Z M14.7569363,9.53878473 C15.0236029,9.80545141 15.0236029,10.2054514 14.7569363,10.4721181 L10.8902696,14.4054514 C10.7569363,14.5387847 10.5902696,14.6054514 10.4236029,14.6054514 C10.2569363,14.6054514 10.0902696,14.5387847 9.95693625,14.4054514 C9.69026958,14.1387847 9.69026958,13.7387847 9.95693625,13.4721181 L13.8236029,9.53878473 C14.0902696,9.27211806 14.4902696,9.27211806 14.7569363,9.53878473 Z M14.9569363,4.60545139 C16.2236029,4.60545139 17.4236029,5.10545139 18.3236029,6.00545139 C19.2236029,6.90545139 19.7569363,8.10545139 19.7569363,9.40545139 C19.7569363,10.6721181 19.2902696,11.9054514 18.3902696,12.8054514 L17.3902696,13.8054514 C17.1902696,13.9054514 17.0236029,13.9721181 16.8569363,13.9721181 C16.6902696,13.9721181 16.5236029,13.9054514 16.3902696,13.7721181 C16.1236029,13.5054514 16.1236029,13.1054514 16.3902696,12.8387847 L17.3902696,11.8387847 C18.0569363,11.1721181 18.3902696,10.3054514 18.3902696,9.37211806 C18.3902696,8.43878473 18.0236029,7.57211806 17.3569363,6.93878473 C16.6902696,6.27211806 15.8236029,5.93878473 14.8902696,5.93878473 C13.9569363,5.93878473 13.0902696,6.30545141 12.4569363,6.97211806 L11.4569363,7.97211806 C11.1902696,8.23878473 10.7902696,8.23878473 10.5236029,7.97211806 C10.2569363,7.70545139 10.2569363,7.30545139 10.5236029,7.03878473 L11.5236029,6.03878473 C12.4236029,5.13878473 13.6236029,4.60545139 14.9236029,4.60545139 L14.9569363,4.60545139 Z" id="形状结合" fill="#1D2129" fill-rule="nonzero" transform="translate(12.390214, 11.972118) rotate(-315.000000) translate(-12.390214, -11.972118) "></path>
            </g>
        </g>
    </g>
</svg>