<?xml version="1.0" encoding="UTF-8"?>
<svg width="16px" height="16px" viewBox="0 0 16 16" version="1.1" xmlns="http://www.w3.org/2000/svg" xmlns:xlink="http://www.w3.org/1999/xlink">
    <title>切片</title>
    <g id="管理后台" stroke="none" stroke-width="1" fill="none" fill-rule="evenodd">
        <g id="Tacos-Could管理后台-市场管理-分类管理" transform="translate(-290.000000, -786.000000)">
            <g id="menu" transform="translate(264.000000, 144.000000)">
                <g id="menu/操作按钮" transform="translate(0.000000, 630.000000)">
                    <g id="图标/操作/添加" transform="translate(26.000000, 12.000000)">
                        <rect id="矩形" fill="#FFFFFF" opacity="0" x="0" y="0" width="16" height="16"></rect>
                        <path d="M8.25,3.35 C8.52614237,3.35 8.75,3.57385763 8.75,3.85 L8.749,7.249 L12.15,7.25 C12.4261424,7.25 12.65,7.47385763 12.65,7.75 L12.65,8.25 C12.65,8.52614237 12.4261424,8.75 12.15,8.75 L8.749,8.749 L8.75,12.15 C8.75,12.4261424 8.52614237,12.65 8.25,12.65 L7.75,12.65 C7.47385763,12.65 7.25,12.4261424 7.25,12.15 L7.249,8.749 L3.85,8.75 C3.57385763,8.75 3.35,8.52614237 3.35,8.25 L3.35,7.75 C3.35,7.47385763 3.57385763,7.25 3.85,7.25 L7.249,7.249 L7.25,3.85 C7.25,3.57385763 7.47385763,3.35 7.75,3.35 L8.25,3.35 Z" id="形状结合" fill="#5E66F2"></path>
                    </g>
                </g>
            </g>
        </g>
    </g>
</svg>