<?xml version="1.0" encoding="UTF-8"?>
<svg width="20px" height="20px" viewBox="0 0 20 20" version="1.1" xmlns="http://www.w3.org/2000/svg" xmlns:xlink="http://www.w3.org/1999/xlink">
    <title>切片</title>
    <g id="管理后台" stroke="none" stroke-width="1" fill="none" fill-rule="evenodd">
        <g id="Tacos-Could管理后台-应用管理-新增" transform="translate(-1254.000000, -638.000000)" fill="#FFFFFF">
            <g id="抽屉" transform="translate(920.000000, 0.000000)">
                <g id="编组备份-6" transform="translate(24.000000, 572.000000)">
                    <g id="编组-6备份-2" transform="translate(264.000000, 30.000000)">
                        <g id="1.通用/图标/线性/3.行动操作/上传" transform="translate(46.000000, 36.000000)">
                            <rect id="矩形" opacity="0" x="0" y="0" width="20" height="20"></rect>
                            <path d="M10.4461499,9.97755038 L10.5310026,10.0507127 L12.704755,12.2244651 L12.7652702,12.2945638 C12.9266438,12.5120538 12.9286361,12.8105658 12.771247,13.0300563 L12.704755,13.1083486 L12.6346563,13.1688637 C12.4171663,13.3302374 12.1186543,13.3322296 11.8991638,13.1748405 L11.8208716,13.1083486 L10.625,11.9137085 L10.625,17.6622915 L9.375,17.6622915 L9.375,11.9117085 L8.17912844,13.1096936 L8.10902975,13.1702088 C7.86435351,13.3517541 7.51713377,13.3315824 7.29524497,13.1096936 C7.07828703,12.8927357 7.05418059,12.5559552 7.22292565,12.31237 L7.29524497,12.2258101 L9.47034245,10.0507127 L9.54714639,9.9835913 C9.81172042,9.78222722 10.1795115,9.78021358 10.4461499,9.97755038 Z M10,2.33770849 C12.5420182,2.33770849 14.6592664,4.15636489 15.1215876,6.56352063 C17.1675442,6.82098038 18.75,8.567248 18.75,10.683118 C18.75,12.8541625 17.0839383,14.6360774 14.9606062,14.8200714 L14.9610916,13.5631705 C16.3924939,13.3842315 17.5,12.1630107 17.5,10.683118 C17.5,9.26253166 16.4731327,8.06219563 15.0995113,7.82378391 L14.9655205,7.80373959 L14.0651796,7.6904422 L13.8940235,6.79928807 C13.5384516,4.94794116 11.9094414,3.58770849 10,3.58770849 C8.1421948,3.58770849 6.54980395,4.87538393 6.13757438,6.65005955 L6.10597338,6.79905934 L5.93482564,7.69007904 L5.03463098,7.80346879 C3.59420883,7.98490632 2.5,9.21670783 2.5,10.683118 C2.5,12.1631978 3.60778622,13.3845404 5.03945144,13.5632383 L5.0393938,14.8200714 C2.91606172,14.6360774 1.25,12.8541625 1.25,10.683118 C1.25,8.567248 2.83245577,6.82098038 4.87841369,6.56326874 C5.34073361,4.15636489 7.45798182,2.33770849 10,2.33770849 Z" id="形状结合"></path>
                        </g>
                    </g>
                </g>
            </g>
        </g>
    </g>
</svg>