<?xml version="1.0" encoding="UTF-8"?>
<svg width="16px" height="16px" viewBox="0 0 16 16" version="1.1" xmlns="http://www.w3.org/2000/svg" xmlns:xlink="http://www.w3.org/1999/xlink">
    <title>切片</title>
    <g id="管理后台" stroke="none" stroke-width="1" fill="none" fill-rule="evenodd">
        <g id="Tacos-Could管理后台-市场管理-分类管理" transform="translate(-440.000000, -476.000000)">
            <g id="menu" transform="translate(264.000000, 144.000000)">
                <g id="menu/菜单-正常备份-5" transform="translate(0.000000, 320.000000)">
                    <g id="图标/3.操作/12.删除" transform="translate(176.000000, 12.000000)">
                        <rect id="矩形" fill="#FFFFFF" fill-rule="nonzero" opacity="0" transform="translate(8.000000, 8.000000) scale(-1, 1) translate(-8.000000, -8.000000) " x="0" y="0" width="16" height="16"></rect>
                        <path d="M10,1 C10.5522847,1 11,1.44771525 11,2 L11,3 L14.5,3 C14.7761424,3 15,3.22385763 15,3.5 C15,3.74545989 14.8231248,3.94960837 14.5898756,3.99194433 L14.5,4 L12.5,4 L12.5,14 C12.5,14.5522847 12.0522847,15 11.5,15 L4.5,15 C3.94771525,15 3.5,14.5522847 3.5,14 L3.5,4 L1.5,4 C1.22385763,4 1,3.77614237 1,3.5 C1,3.25454011 1.17687516,3.05039163 1.41012437,3.00805567 L1.5,3 L5,3 L5,2 C5,1.44771525 5.44771525,1 6,1 L10,1 Z M11.5,4 L4.5,4 L4.5,14 L11.5,14 L11.5,4 Z M6.59090909,6.52272727 C6.83636898,6.52272727 7.04051746,6.69960243 7.08285342,6.93285164 L7.09090909,7.02272727 L7.09090909,11.0227273 C7.09090909,11.2988696 6.86705147,11.5227273 6.59090909,11.5227273 C6.3454492,11.5227273 6.14130072,11.3458521 6.09896476,11.1126029 L6.09090909,11.0227273 L6.09090909,7.02272727 C6.09090909,6.7465849 6.31476672,6.52272727 6.59090909,6.52272727 Z M10,2 L6,2 L6,3 L10,3 L10,2 Z" id="形状" fill="#4E5969"></path>
                    </g>
                </g>
            </g>
        </g>
    </g>
</svg>