<?xml version="1.0" encoding="UTF-8"?>
<svg width="16px" height="16px" viewBox="0 0 16 16" version="1.1" xmlns="http://www.w3.org/2000/svg" xmlns:xlink="http://www.w3.org/1999/xlink">
    <title>切片</title>
    <g id="管理后台" stroke="none" stroke-width="1" fill="none" fill-rule="evenodd">
        <g id="Tacos-Could管理后台-市场管理-分类管理" transform="translate(-408.000000, -476.000000)">
            <g id="menu" transform="translate(264.000000, 144.000000)">
                <g id="menu/菜单-正常备份-5" transform="translate(0.000000, 320.000000)">
                    <g id="图标/3.操作/10.编辑" transform="translate(144.000000, 12.000000)">
                        <rect id="矩形" fill="#FFFFFF" opacity="0" x="0" y="0" width="16" height="16"></rect>
                        <path d="M14.5,13 C14.7761424,13 15,13.2238576 15,13.5 C15,13.7761424 14.7761424,14 14.5,14 L8,14 C7.72385763,14 7.5,13.7761424 7.5,13.5 C7.5,13.2238576 7.72385763,13 8,13 L14.5,13 Z M10.0664484,2.35589949 L12.6441005,4.93355163 C13.1186332,5.40808429 13.1186332,6.17745374 12.6441005,6.65198639 L6.71968627,12.5764006 C5.78384515,13.5122418 4.50684786,14.0259909 3.18364418,13.9989867 L1.5931231,13.9665271 C1.28666479,13.9602729 1.03972712,13.7133352 1.03347287,13.4068769 L1.00101326,11.8163558 C0.974009099,10.4931521 1.48775825,9.21615485 2.42359936,8.28031373 L8.34801361,2.35589949 C8.82254626,1.88136684 9.59191571,1.88136684 10.0664484,2.35589949 Z M9.1109538,3.02268226 L9.05512039,3.06300627 L3.13070615,8.98742052 C2.44049925,9.67762741 2.03936006,10.6014735 2.00274861,11.5713921 L2.00080507,11.7959519 L2.024,12.975 L3.20404809,12.9991949 C4.17994485,13.0191112 5.12419737,12.6686951 5.8492389,12.0234066 L6.01257948,11.8692939 L11.9369937,5.94487961 C12.0042004,5.87767292 12.0176418,5.77706072 11.9773177,5.69649183 L11.9369937,5.64065841 L9.35934159,3.06300627 C9.29213489,2.99579958 9.1915227,2.98235824 9.1109538,3.02268226 Z M14.5,11 C14.7761424,11 15,11.2238576 15,11.5 C15,11.7761424 14.7761424,12 14.5,12 L10.1428571,12 C9.86671477,12 9.64285714,11.7761424 9.64285714,11.5 C9.64285714,11.2238576 9.86671477,11 10.1428571,11 L14.5,11 Z" id="形状结合" fill="#4E5969"></path>
                    </g>
                </g>
            </g>
        </g>
    </g>
</svg>