<?xml version="1.0" encoding="UTF-8"?>
<svg width="16px" height="16px" viewBox="0 0 16 16" version="1.1" xmlns="http://www.w3.org/2000/svg" xmlns:xlink="http://www.w3.org/1999/xlink">
    <title>切片</title>
    <g id="管理后台" stroke="none" stroke-width="1" fill="none" fill-rule="evenodd">
        <g id="Tacos-Could管理后台-市场管理-分类管理" transform="translate(-440.000000, -276.000000)">
            <g id="menu" transform="translate(264.000000, 144.000000)">
                <g id="menu/菜单-正常备份" transform="translate(0.000000, 120.000000)">
                    <g id="图标/反馈/隐藏" transform="translate(176.000000, 12.000000)">
                        <rect id="矩形备份-2" fill="#FFFFFF" opacity="0" x="0" y="0" width="16" height="16"></rect>
                        <path d="M3.12638165,2.76740982 L4.4676496,4.1098821 C4.46798806,4.10971528 4.46832655,4.1095485 4.46866505,4.10938174 L4.875,4.51640982 L6.06123542,5.703053 L6.06123542,5.703053 L6.77016752,6.41125081 L6.769,6.41040982 L9.44145068,9.08253398 L9.44145068,9.08253398 L10.1502359,9.79093741 L10.15,9.79140982 L11.0671847,10.70985 C11.0675123,10.7096903 11.0678399,10.7095306 11.0681674,10.7093709 L11.8101657,11.4503324 L11.809,11.4504098 L12.8844552,12.5254834 L12.1773484,13.2325902 L10.8354852,11.8915389 C9.98364868,12.1989806 9.03848693,12.3527015 8,12.3527015 C4.7560045,12.3527015 2.42267117,10.8527015 1,7.8527015 C1.66282709,6.45499182 2.5233278,5.38288086 3.58150214,4.63636863 L2.41927487,3.4745166 L3.12638165,2.76740982 Z M2.16493077,7.76883148 L2.12010198,7.85229955 L2.16493077,7.93657151 C3.38503365,10.1597291 5.20023168,11.2718465 7.71741832,11.3484478 L8,11.3527015 C8.73705346,11.3527015 9.41601311,11.267717 10.0394024,11.0959653 L9.35491227,10.4114545 C8.9506651,10.6259567 8.48952251,10.7474656 8,10.7474656 C6.40126594,10.7474656 5.10523591,9.45143556 5.10523591,7.8527015 C5.10523591,7.36265233 5.22700636,6.90104418 5.44193962,6.49648469 L4.30077781,5.35598711 C3.44884668,5.91818942 2.74064095,6.71982611 2.16493077,7.76883148 Z M8,3.3527015 C11.2439955,3.3527015 13.5773288,4.8527015 15,7.8527015 C14.3885988,9.14196891 13.6090074,10.1542012 12.6612257,10.8893985 L11.9479154,10.1754793 C12.6900146,9.6261421 13.3163275,8.88177427 13.8350692,7.93657151 L13.879102,7.85229955 L13.8350692,7.76883148 C12.6149664,5.54567384 10.7997683,4.4335565 8.28258168,4.3569552 L8,4.3527015 C7.39411949,4.3527015 6.82749496,4.41012841 6.29872473,4.52597258 L5.48115743,3.70798735 C6.24887264,3.47113011 7.08848683,3.3527015 8,3.3527015 Z M6.10523591,7.8527015 C6.10523591,8.89915081 6.95355069,9.74746558 8,9.74746558 C8.20827012,9.74746558 8.40869191,9.71386285 8.59613957,9.65178317 L6.20071826,7.25716636 C6.13876645,7.44444041 6.10523591,7.64465521 6.10523591,7.8527015 Z M8,4.95793741 C9.59873406,4.95793741 10.8947641,6.25396744 10.8947641,7.8527015 C10.8947641,8.2291653 10.8229005,8.58884446 10.692143,8.91876919 L9.87723591,8.10393741 L9.89055409,7.98002095 C9.89334594,7.93794199 9.89476409,7.89548735 9.89476409,7.8527015 C9.89476409,6.80625219 9.04644931,5.95793741 8,5.95793741 C7.91477194,5.95793741 7.83085817,5.96356452 7.74860994,5.97446749 L6.93452221,5.16032475 C7.26428575,5.02971539 7.62376055,4.95793741 8,4.95793741 Z" id="形状结合" fill="#C9CDD4"></path>
                    </g>
                </g>
            </g>
        </g>
    </g>
</svg>