<?xml version="1.0" encoding="UTF-8"?>
<svg width="16px" height="16px" viewBox="0 0 16 16" version="1.1" xmlns="http://www.w3.org/2000/svg" xmlns:xlink="http://www.w3.org/1999/xlink">
    <title>切片</title>
    <g id="管理后台" stroke="none" stroke-width="1" fill="none" fill-rule="evenodd">
        <g id="Tacos-Could管理后台-市场管理-分类管理" transform="translate(-382.000000, -786.000000)">
            <g id="menu" transform="translate(264.000000, 144.000000)">
                <g id="menu/操作按钮" transform="translate(0.000000, 630.000000)">
                    <g id="图标/操作/拖拽" transform="translate(118.000000, 12.000000)">
                        <rect id="矩形" fill="#FFFFFF" opacity="0" transform="translate(8.000000, 8.000000) rotate(90.000000) translate(-8.000000, -8.000000) " x="0" y="0" width="16" height="16"></rect>
                        <path d="M5.73957239,12 C6.29185714,12 6.73957239,12.4477153 6.73957239,13 C6.73957239,13.5522847 6.29185714,14 5.73957239,14 C5.18728764,14 4.73957239,13.5522847 4.73957239,13 C4.73957239,12.4477153 5.18728764,12 5.73957239,12 Z M10.2604276,12 C10.8127124,12 11.2604276,12.4477153 11.2604276,13 C11.2604276,13.5522847 10.8127124,14 10.2604276,14 C9.70814286,14 9.26042761,13.5522847 9.26042761,13 C9.26042761,12.4477153 9.70814286,12 10.2604276,12 Z M5.73957239,7 C6.29185714,7 6.73957239,7.44771525 6.73957239,8 C6.73957239,8.55228475 6.29185714,9 5.73957239,9 C5.18728764,9 4.73957239,8.55228475 4.73957239,8 C4.73957239,7.44771525 5.18728764,7 5.73957239,7 Z M10.2604276,7 C10.8127124,7 11.2604276,7.44771525 11.2604276,8 C11.2604276,8.55228475 10.8127124,9 10.2604276,9 C9.70814286,9 9.26042761,8.55228475 9.26042761,8 C9.26042761,7.44771525 9.70814286,7 10.2604276,7 Z M5.73957239,2 C6.29185714,2 6.73957239,2.44771525 6.73957239,3 C6.73957239,3.55228475 6.29185714,4 5.73957239,4 C5.18728764,4 4.73957239,3.55228475 4.73957239,3 C4.73957239,2.44771525 5.18728764,2 5.73957239,2 Z M10.2604276,2 C10.8127124,2 11.2604276,2.44771525 11.2604276,3 C11.2604276,3.55228475 10.8127124,4 10.2604276,4 C9.70814286,4 9.26042761,3.55228475 9.26042761,3 C9.26042761,2.44771525 9.70814286,2 10.2604276,2 Z" id="形状结合" fill="#4E5969"></path>
                    </g>
                </g>
            </g>
        </g>
    </g>
</svg>