<?xml version="1.0" encoding="UTF-8"?>
<svg width="16px" height="16px" viewBox="0 0 16 16" version="1.1" xmlns="http://www.w3.org/2000/svg" xmlns:xlink="http://www.w3.org/1999/xlink">
    <title>切片</title>
    <g id="管理后台" stroke="none" stroke-width="1" fill="none" fill-rule="evenodd">
        <g id="Tacos-Could管理后台-应用管理-新增" transform="translate(-1021.000000, -161.000000)">
            <g id="抽屉" transform="translate(920.000000, 0.000000)">
                <g id="编组备份" transform="translate(24.000000, 158.000000)">
                    <g id="图标/反馈图标/提示信息" transform="translate(77.000000, 3.000000)">
                        <rect id="矩形" fill="#D8D8D8" opacity="0" x="0" y="0" width="16" height="16"></rect>
                        <path d="M8,1 C11.866,1 15,4.13401 15,8 C15,11.866 11.866,15 8,15 C4.13401,15 1,11.866 1,8 C1,4.13401 4.13401,1 8,1 Z M8.45,10.4455633 L7.55,10.4455633 C7.43954305,10.4455633 7.35,10.5351064 7.35,10.6455633 L7.35,10.6455633 L7.35,11.5455633 C7.35,11.6560203 7.43954305,11.7455633 7.55,11.7455633 L7.55,11.7455633 L8.45,11.7455633 C8.56045695,11.7455633 8.65,11.6560203 8.65,11.5455633 L8.65,11.5455633 L8.65,10.6455633 C8.65,10.5351064 8.56045695,10.4455633 8.45,10.4455633 L8.45,10.4455633 Z M8,4.25225546 C6.70904826,4.25225546 5.65595251,5.2790352 5.65595251,6.55397007 L5.65595251,6.55397007 L5.65595251,6.60640856 L6.95595251,6.60640856 L6.95595251,6.55397007 L6.96203367,6.4454726 C7.01831081,5.94618575 7.45844131,5.55225546 8,5.55225546 C8.58024145,5.55225546 9.04404749,6.00447136 9.04404749,6.55397007 L9.04404749,6.55397007 L9.03666191,6.67341406 C9.00245087,6.94855981 8.85117857,7.1961279 8.62032818,7.35984749 L8.62032818,7.35984749 L8.526,7.417 L8.32464281,7.51168257 L8.14689741,7.6071858 L8.07035874,7.6543744 C7.63392142,7.94458628 7.35708546,8.3841609 7.35004621,8.97448976 L7.35004621,8.97448976 L7.3488251,9.12196858 L7.35,9.74432466 L8.65,9.74432466 L8.64995379,8.98999024 C8.65145624,8.86399149 8.68921587,8.80403476 8.7901869,8.73689341 L8.7901869,8.73689341 L8.88734465,8.68443554 L9.12504121,8.57219279 L9.28494984,8.47933562 C9.93669697,8.05967425 10.3440475,7.34258492 10.3440475,6.55397007 C10.3440475,5.2790352 9.29095174,4.25225546 8,4.25225546 Z" id="形状结合" fill="#C9CDD4"></path>
                    </g>
                </g>
            </g>
        </g>
    </g>
</svg>