<?xml version="1.0" encoding="UTF-8"?>
<svg width="20px" height="20px" viewBox="0 0 20 20" version="1.1" xmlns="http://www.w3.org/2000/svg" xmlns:xlink="http://www.w3.org/1999/xlink">
    <title>切片</title>
    <g id="管理后台" stroke="none" stroke-width="1" fill="none" fill-rule="evenodd">
        <g id="Tacos-Could管理后台-应用管理-新增" transform="translate(-990.000000, -638.000000)">
            <g id="抽屉" transform="translate(920.000000, 0.000000)">
                <g id="编组备份-6" transform="translate(24.000000, 572.000000)">
                    <g id="编组-6" transform="translate(0.000000, 30.000000)">
                        <g id="图标/3.操作/1.增加" transform="translate(46.000000, 36.000000)">
                            <rect id="矩形" fill="#FFFFFF" opacity="0" x="0" y="0" width="20" height="20"></rect>
                            <path d="M10.3125,4.1875 C10.657678,4.1875 10.9375,4.46732203 10.9375,4.8125 L10.9365,9.0625 L15.1875,9.0625 C15.532678,9.0625 15.8125,9.34232203 15.8125,9.6875 L15.8125,10.3125 C15.8125,10.657678 15.532678,10.9375 15.1875,10.9375 L10.9365,10.9375 L10.9375,15.1875 C10.9375,15.532678 10.657678,15.8125 10.3125,15.8125 L9.6875,15.8125 C9.34232203,15.8125 9.0625,15.532678 9.0625,15.1875 L9.0615,10.9375 L4.8125,10.9375 C4.46732203,10.9375 4.1875,10.657678 4.1875,10.3125 L4.1875,9.6875 C4.1875,9.34232203 4.46732203,9.0625 4.8125,9.0625 L9.0615,9.0625 L9.0625,4.8125 C9.0625,4.46732203 9.34232203,4.1875 9.6875,4.1875 L10.3125,4.1875 Z" id="形状结合" fill="#4E5969"></path>
                        </g>
                    </g>
                </g>
            </g>
        </g>
    </g>
</svg>